<svg xmlns="http://www.w3.org/2000/svg" width="28" height="27" viewBox="0 0 28 27">
    <g fill="none" fill-rule="evenodd">
        <g fill="#FFF">
            <path d="M1421.614 75.094c-.774 0-1.4-.627-1.4-1.4 0-.775.626-1.402 1.4-1.402.774 0 1.401.627 1.401 1.401s-.627 1.401-1.4 1.401m-4.865 0c-.774 0-1.4-.627-1.4-1.4 0-.775.626-1.402 1.4-1.402.774 0 1.401.627 1.401 1.401s-.627 1.401-1.4 1.401m-4.865 0c-.774 0-1.4-.627-1.4-1.4 0-.775.626-1.402 1.4-1.402.774 0 1.401.627 1.401 1.401s-.627 1.401-1.4 1.401m0-7.207c.773 0 1.4.627 1.4 1.401s-.627 1.401-1.4 1.401c-.775 0-1.402-.627-1.402-1.4 0-.775.627-1.402 1.401-1.402m2.04 3.603c.144-.134.275-.283.392-.443.116.16.248.31.393.443-.145.135-.277.284-.393.444-.117-.16-.248-.309-.393-.444m2.825-3.603c.774 0 1.401.627 1.401 1.401s-.627 1.401-1.4 1.401c-.775 0-1.402-.627-1.402-1.4 0-.775.627-1.402 1.401-1.402m2.432 4.047c-.116-.16-.248-.309-.393-.444.145-.134.277-.283.393-.443.116.16.248.31.393.443-.145.135-.277.284-.393.444m2.432-4.047c.774 0 1.401.627 1.401 1.401s-.627 1.401-1.4 1.401c-.775 0-1.402-.627-1.402-1.4 0-.775.627-1.402 1.401-1.402m0-1.6c-1.002 0-1.887.491-2.432 1.246-.546-.755-1.43-1.247-2.432-1.247s-1.887.492-2.432 1.247c-.545-.755-1.43-1.247-2.432-1.247-1.658 0-3.002 1.344-3.002 3.002 0 .87.371 1.654.963 2.202-.592.55-.963 1.332-.963 2.203 0 1.658 1.344 3.002 3.002 3.002 1.002 0 1.887-.492 2.432-1.247.545.755 1.43 1.247 2.432 1.247s1.886-.492 2.432-1.247c.545.755 1.43 1.247 2.432 1.247 1.658 0 3.002-1.344 3.002-3.002 0-.87-.37-1.654-.963-2.203.592-.548.963-1.332.963-2.202 0-1.658-1.344-3.002-3.002-3.002m-4.864-8.296c7.456 0 13.5 6.045 13.5 13.5 0 7.457-6.044 13.5-13.5 13.5s-13.5-6.043-13.5-13.5c0-7.455 6.044-13.5 13.5-13.5" transform="translate(-1403 -58)"/>
        </g>
    </g>
</svg>
