<svg xmlns="http://www.w3.org/2000/svg" width="28" height="27" viewBox="0 0 28 27">
    <g fill="none" fill-rule="evenodd">
        <g fill="#FFF">
            <path d="M1503.25 57.99c7.455 0 13.5 6.046 13.5 13.5 0 7.456-6.045 13.5-13.5 13.5s-13.5-6.044-13.5-13.5c0-7.454 6.045-13.5 13.5-13.5zm0 5.749H1502.304c-1.27.004-1.568.015-2.25.047-.827.038-1.39.169-1.883.36-.517.195-.986.5-1.373.894-.395.387-.7.856-.894 1.373-.192.493-.323 1.057-.36 1.882-.032.683-.044.982-.047 2.252V72.435c.003 1.27.015 1.568.047 2.252.037.825.168 1.389.36 1.882.195.517.5.986.894 1.373.387.394.856.699 1.373.894.493.192 1.056.323 1.882.36.683.031.982.043 2.252.046h1.888c1.27-.003 1.57-.015 2.252-.046.825-.037 1.388-.168 1.882-.36 1.041-.403 1.864-1.226 2.267-2.267.191-.493.322-1.057.36-1.882.032-.684.043-.983.046-2.253v-1.887c-.003-1.27-.014-1.57-.046-2.252-.038-.825-.169-1.39-.36-1.882-.195-.517-.5-.985-.894-1.373-.388-.394-.856-.7-1.373-.894-.494-.191-1.057-.322-1.882-.36-.683-.032-.982-.043-2.252-.046l-.68-.001zm.722 1.397c1.422.003 1.7.013 2.411.045.755.034 1.166.161 1.44.267.336.124.64.322.89.58.258.25.456.554.58.891.106.273.233.684.267 1.439.032.711.043.99.045 2.41v1.445c-.002 1.422-.013 1.7-.045 2.41-.035.756-.16 1.167-.267 1.44-.26.676-.795 1.21-1.47 1.471-.274.106-.685.233-1.44.267l-.388.017-.267.01c-.33.01-.697.015-1.362.017h-2.232c-.665-.002-1.031-.008-1.362-.018l-.267-.01-.388-.016c-.755-.034-1.166-.161-1.439-.267-.337-.124-.64-.322-.892-.58-.257-.25-.455-.554-.579-.891-.106-.273-.233-.684-.267-1.44l-.017-.387-.006-.178c-.015-.445-.02-.912-.022-2.067v-1c.001-1.078.006-1.557.019-1.978l.006-.178c.005-.148.012-.3.02-.477.034-.755.161-1.166.267-1.439.124-.337.322-.641.58-.891.25-.258.554-.456.891-.58.273-.106.684-.233 1.44-.267.177-.008.328-.015.476-.02l.178-.007c.391-.012.832-.016 1.756-.018zm-.722 2.374c-2.198 0-3.98 1.782-3.98 3.981 0 2.198 1.782 3.98 3.98 3.98 2.2 0 3.981-1.782 3.981-3.98 0-2.199-1.782-3.981-3.98-3.981zm0 1.397c1.427 0 2.584 1.157 2.584 2.584s-1.157 2.584-2.584 2.584-2.584-1.157-2.584-2.584 1.157-2.584 2.584-2.584zm4.138-2.484c-.514 0-.93.416-.93.93 0 .513.416.93.93.93s.93-.417.93-.93c0-.514-.416-.93-.93-.93z" transform="translate(-1489 -58)"/>
        </g>
    </g>
</svg>
