<svg xmlns="http://www.w3.org/2000/svg" width="27" height="27" viewBox="0 0 27 27">
    <g fill="none" fill-rule="evenodd">
        <g fill="#FFF">
            <path d="M1543.545 73.588c1.312-.302 1.195 1.308.326 1.511-1.215.284-1.428-1.258-.326-1.51m1.816-.23c.042.284-.441.541-.652.183-.004-.463.602-.51.652-.183m1.724-.32c-.298-.883-1.305-1.56-2.655-1.42-1.581.163-3.1 1.511-2.468 3.205.946 2.534 6.115 1.163 5.123-1.786m3.26-6.274c-.27.02-.746-.036-.746.504 0 .727.82.304 1.35.55.27.124.58.548.606.915.04.597-.213 1.098.466 1.053.944-.06.792-3.207-1.676-3.022m-1.212 8.29c-1.02 1.137-3.165 1.881-5.308 1.74-4.047-.267-5.438-3.686-2.143-5.588 2.896-1.67 8.19-.99 8.196 2.061.002.738-.372 1.371-.745 1.786m1.258-4.397c.255-.652.412-1.497 0-1.969-.936-1.07-3.053.025-4.052.091.465-1.394-.045-2.807-1.77-2.38-1.588.392-2.756 1.245-3.864 2.335-1.161 1.141-2.345 2.482-2.515 4.213-.198 2.01 1.087 3.02 2.328 3.71 4.527 2.514 11.775.216 12.2-3.206.232-1.857-1.165-2.168-2.327-2.794m-.513-6.09c-.36.046-.718.041-.791.457-.164.946.895.642 1.35.642 1.609 0 3.25 1.314 3.214 3.206-.013.652-.536 1.737.466 1.65.613-.056.769-1.15.698-2.063-.19-2.418-2.232-4.247-4.937-3.893M1560 71.49c0 7.456-6.044 13.5-13.5 13.5-7.455 0-13.5-6.044-13.5-13.5s6.045-13.5 13.5-13.5c7.456 0 13.5 6.044 13.5 13.5" transform="translate(-1533 -58)"/>
        </g>
    </g>
</svg>
