<svg xmlns="http://www.w3.org/2000/svg" viewBox="0 0 20.46 18.5"><defs><style>.cls-1{fill:#fff;}</style></defs><title>20201201 RDPT Website</title><g id="Pop_Up" data-name="Pop Up"><path class="cls-1" d="M19.44,10.32a1,1,0,0,0-1,1V16a.52.52,0,0,1-.52.51H2.55A.51.51,0,0,1,2,16V11.34a1,1,0,0,0-2,0V16A2.56,2.56,0,0,0,2.55,18.5H17.91A2.55,2.55,0,0,0,20.46,16V11.34A1,1,0,0,0,19.44,10.32Z"/><path class="cls-1" d="M9.51,15.13a1,1,0,0,0,1.44,0l3.84-3.84a1,1,0,0,0,0-1.44h0a1,1,0,0,0-1.42,0L11.25,12V1a1,1,0,1,0-2,0V12l-2.1-2.1a1,1,0,0,0-1.44,1.44Z"/></g></svg>