<svg xmlns="http://www.w3.org/2000/svg" viewBox="0 0 76 76"><defs><style>.cls-1{fill:#db2c2c;}.cls-2{fill:#fff;}</style></defs><title>20201201 RDPT Website</title><g id="txt"><path class="cls-1" d="M38,76A38,38,0,1,1,76,38,38,38,0,0,1,38,76ZM38,6A32,32,0,1,0,70,38,32,32,0,0,0,38,6Z"/><path class="cls-2" d="M39.38,51H36.62a.66.66,0,1,0,0,1.32h2.76a.66.66,0,1,0,0-1.32Z"/><path class="cls-2" d="M51.28,26.31h-4V24.87A2,2,0,0,0,46.63,21H29.37a2,2,0,0,0-.67,3.87v1.44h-4a.67.67,0,0,0-.67.67v4.64a5.33,5.33,0,0,0,5.32,5.32h.56c.13.22.26.44.41.65A9.36,9.36,0,0,0,34,40.74,1.69,1.69,0,0,0,34,41a2,2,0,0,0,1.5,1.93c-.8,2.66-2.22,5.46-3.9,5.46H30a.67.67,0,0,0-.66.58l-.66,5.31a.65.65,0,0,0,.16.53.68.68,0,0,0,.5.22H46.63a.68.68,0,0,0,.5-.22.65.65,0,0,0,.16-.53l-.66-5.31a.67.67,0,0,0-.66-.58h-1.6c-1,0-1.87-1.07-2.41-2a15.73,15.73,0,0,1-1.48-3.5A2,2,0,0,0,42,41a1.69,1.69,0,0,0,0-.23,9.36,9.36,0,0,0,3.69-3.15c.15-.21.28-.43.41-.65h.56A5.33,5.33,0,0,0,52,31.62V27a.67.67,0,0,0-.67-.67Zm-25.9,5.31v-4H28.7v4.7a9.29,9.29,0,0,0,.6,3.27A4,4,0,0,1,25.38,31.62Zm20.5,22.05H30.12l.5-4H45.38Zm-4.12-5.31H34.24a7.75,7.75,0,0,0,.94-1.27A18.26,18.26,0,0,0,36.89,43h2.22a17.58,17.58,0,0,0,1.71,4.12,7.86,7.86,0,0,0,.94,1.28ZM40,41.64H36a.67.67,0,1,1,0-1.33h4a.67.67,0,1,1,0,1.33Zm1.39-2.09A2,2,0,0,0,40,39H36a2,2,0,0,0-1.39.57A8,8,0,0,1,30,32.34V25h5a.66.66,0,1,0,0-1.32H29.37a.67.67,0,1,1,0-1.33H46.63a.67.67,0,1,1,0,1.33H41A.66.66,0,1,0,41,25h5v7.36A8,8,0,0,1,41.38,39.55Zm9.24-7.93a4,4,0,0,1-3.92,4,9.29,9.29,0,0,0,.6-3.27v-4.7h3.32Z"/><path class="cls-2" d="M38,25a.66.66,0,1,0,0-1.32h0A.66.66,0,0,0,38,25Z"/></g></svg>