<svg xmlns="http://www.w3.org/2000/svg" xmlns:xlink="http://www.w3.org/1999/xlink" width="22" height="21" viewBox="0 0 22 21">
    <defs>
        <path id="1pzi6jrxta" d="M0 0L21.5 0 21.5 20.595 0 20.595z"/>
    </defs>
    <g fill="none" fill-rule="evenodd">
        <g>
            <g>
                <g transform="translate(-358 -133) translate(0 111) translate(358 22)">
                    <mask id="gsjxf0zdeb" fill="#fff">
                        <use xlink:href="#1pzi6jrxta"/>
                    </mask>
                    <path fill="#FFF" d="M21.32 10.493c.116-.115.18-.268.18-.431 0-.162-.062-.316-.177-.431L12.369.618c-.908-.817-2.242-.82-3.13-.031L.18 9.629c-.238.238-.238.624-.001.862s.624.238.862 0l1.109-1.105v8.022c0 1.758 1.429 3.188 3.187 3.188H8.43c.336 0 .609-.274.609-.61v-7.254h3.508v7.254c0 .336.273.61.609.61h3.008c1.758 0 3.188-1.43 3.188-3.188 0-.336-.274-.61-.61-.61-.336 0-.61.274-.61.61 0 1.085-.882 1.969-1.968 1.969h-2.398v-7.254c0-.336-.274-.61-.61-.61H8.43c-.336 0-.61.274-.61.61v7.254H5.336c-1.085 0-1.97-.884-1.97-1.97V8.196l.074-.1 6.616-6.601c.432-.368 1.037-.367 1.454-.01l6.623 6.665v4.962c0 .336.273.61.609.61.336 0 .61-.274.61-.61V9.376l1.107 1.114c.229.23.63.232.86.003" mask="url(#gsjxf0zdeb)"/>
                </g>
            </g>
        </g>
    </g>
</svg>
