<?xml version="1.0" encoding="UTF-8"?>
<svg width="184px" height="43px" viewBox="0 0 184 43" version="1.1" xmlns="http://www.w3.org/2000/svg" xmlns:xlink="http://www.w3.org/1999/xlink">
    <title>Group 5</title>
    <g id="Page-1" stroke="none" stroke-width="1" fill="none" fill-rule="evenodd">
        <g id="Landing" transform="translate(-868.000000, -1089.000000)" fill="#FFFFFF">
            <g id="Section-A" transform="translate(358.000000, 1089.000000)">
                <g id="Group-5" transform="translate(510.000000, 0.000000)">
                    <path d="M2.1483,0.92 L2.1533,15.561 L39.9803,15.549 L39.9753,0.907 L2.1483,0.92 Z M11.1743,4.805 L30.8553,4.799 L30.8563,6.527 L11.1743,6.533 L11.1743,4.805 Z M11.1763,9.894 L30.8573,9.888 L30.8583,11.567 L11.1763,11.574 L11.1763,9.894 Z M0.2813,17.29 L0.2823,21.322 L2.1543,21.322 L2.1603,36.107 L0.0003,36.3 L0.0013,40.236 L13.9703,39.272 L13.9713,42.68 L22.3723,42.676 L22.3703,38.692 L24.1943,38.548 L24.1943,34.611 L22.3693,34.708 L22.3673,29.572 L27.9383,35.475 L22.8043,42.676 L31.2053,42.674 L32.6443,40.705 L34.4693,42.673 L43.3013,42.67 L36.4823,35.327 L41.4253,28.365 L41.4233,23.709 L23.5183,23.715 L23.5183,27.795 L33.5043,27.792 L31.6813,30.24 L30.7683,29.184 L22.3673,29.187 L22.3653,21.315 L41.9513,21.309 L41.9493,17.276 L0.2813,17.29 Z M10.1243,21.319 L13.9643,21.318 L13.9643,23.43 L10.1243,23.432 L10.1243,21.319 Z M10.1263,27.272 L13.9663,27.27 L13.9673,29.431 L10.1273,29.432 L10.1263,27.272 Z M10.1273,33.224 L13.9683,33.223 L13.9693,35.335 L10.1283,35.576 L10.1273,33.224 Z" id="Fill-1"></path>
                    <path d="M53.1288,0.2306 L53.9938,3.3506 L47.8018,3.3526 L47.8038,7.7686 L69.2618,7.7616 L69.2598,3.3456 L62.8268,3.3476 L61.8658,0.2276 L53.1288,0.2306 Z M81.4028,0.2696 L80.6368,2.5736 L70.5068,2.5766 L70.5188,35.4116 L69.5588,38.5326 L68.4518,28.6926 L63.3638,28.6936 L64.6638,41.0776 L68.6958,41.0776 L68.3128,42.5176 L76.1848,42.5146 L78.2478,36.8976 L78.2418,19.6646 L80.0658,19.6636 L80.0738,42.5136 L87.7058,42.5106 L87.6988,19.6606 L89.7148,19.6596 L89.7128,15.0516 L78.2408,15.0556 L78.2378,7.0866 L88.0308,7.0836 L89.9968,0.2666 L81.4028,0.2696 Z M61.1008,9.0606 L59.2788,15.3016 L58.0298,15.3016 L56.6838,9.0626 L49.0028,9.0646 L50.3498,15.3046 L47.2288,15.3056 L47.2308,19.7706 L54.6718,19.7676 L54.6728,22.6966 L47.8078,22.6986 L47.8098,27.1636 L54.6738,27.1606 L54.6798,42.5216 L62.6478,42.5186 L62.6428,27.1576 L69.2198,27.1556 L69.2178,22.6906 L62.6418,22.6936 L62.6408,19.7656 L69.6488,19.7626 L69.6478,15.2986 L66.9118,15.2996 L68.8298,9.0576 L61.1008,9.0606 Z M48.4348,28.6986 L46.7098,41.4196 L52.3268,41.4186 L53.9548,28.6966 L48.4348,28.6986 Z" id="Fill-2"></path>
                    <path d="M109.674,0.3071 L110.491,3.0921 L94.026,3.0971 L94.028,10.3461 L97.437,10.3451 L97.437,12.1691 L103.869,12.1661 L103.87,13.6551 L96.142,13.6581 L96.143,16.7781 L103.871,16.7751 L103.872,18.2151 L94.03,18.2181 L94.032,21.7711 L99.409,21.7681 L92.978,28.5401 L97.442,28.5381 L97.447,39.3871 L100.422,39.3861 L93.463,42.7011 L106.232,42.6961 L112.856,39.3811 L117.416,39.3811 L123.945,42.6901 L136.906,42.6861 L130.185,39.3761 L132.489,39.3751 L132.485,28.5261 L137.046,28.5251 L130.515,21.7591 L135.555,21.7571 L135.554,18.2041 L125.953,18.2071 L125.953,16.7671 L133.729,16.7641 L133.728,13.6441 L125.952,13.6471 L125.951,12.1591 L132.384,12.1561 L132.384,10.3331 L135.648,10.3311 L135.645,3.0831 L120.092,3.0881 L119.035,0.3041 L109.674,0.3071 Z M125.95,7.2151 L129.07,7.2141 L129.071,8.8941 L125.951,8.8951 L125.95,7.2151 Z M112.508,7.2191 L117.309,7.2171 L117.31,8.8971 L112.509,8.8991 L112.508,7.2191 Z M100.796,7.2241 L103.868,7.2221 L103.868,8.9021 L100.796,8.9031 L100.796,7.2241 Z M112.51,12.1641 L117.311,12.1621 L117.311,13.6501 L112.511,13.6511 L112.51,12.1641 Z M112.512,16.7721 L117.312,16.7711 L117.312,18.2111 L112.513,18.2121 L112.512,16.7721 Z M109.634,21.7661 L120.434,21.7611 L121.827,23.2491 L108.29,23.2541 L109.634,21.7661 Z M106.034,26.5671 L123.94,26.5611 L123.941,28.0491 L106.035,28.0551 L106.034,26.5671 Z M106.036,30.5991 L123.942,30.5931 L123.942,32.0331 L106.036,32.0391 L106.036,30.5991 Z M106.037,34.5361 L123.943,34.5301 L123.944,36.0171 L106.038,36.0241 L106.037,34.5361 Z" id="Fill-3"></path>
                    <path d="M166.761,0.0002 L157.64,0.0032 L157.641,2.8842 L141.272,2.8892 L141.273,7.1612 L157.643,7.1562 L157.643,8.6442 L143.434,8.6492 L143.437,18.7292 L157.647,18.7252 L157.647,20.2132 L142.91,20.2182 L142.911,24.1062 L157.648,24.1012 L157.649,25.7812 L140.703,25.7872 L140.705,30.2522 L157.65,30.2452 L157.651,31.9262 L142.914,31.9312 L142.915,35.9632 L157.652,35.9582 L157.653,38.2142 L149.54,38.2172 L151.606,42.5372 L166.775,42.5312 L166.774,35.9552 L181.462,35.9502 L181.461,30.2372 L183.668,30.2362 L183.667,25.7722 L181.459,25.7732 L181.457,20.2052 L166.768,20.2102 L166.767,18.7222 L180.976,18.7162 L180.973,8.6352 L166.764,8.6412 L166.764,7.1522 L183.229,7.1472 L183.227,2.8752 L166.762,2.8802 L166.761,0.0002 Z M166.766,12.6732 L172.238,12.6712 L172.238,14.7362 L166.766,14.7382 L166.766,12.6732 Z M152.22,12.6782 L157.645,12.6762 L157.645,14.7402 L152.221,14.7422 L152.22,12.6782 Z M166.769,24.0982 L172.818,24.0962 L172.818,25.7762 L166.77,25.7782 L166.769,24.0982 Z M166.771,30.2432 L172.82,30.2402 L172.821,31.9202 L166.772,31.9232 L166.771,30.2432 Z" id="Fill-4"></path>
                </g>
            </g>
        </g>
    </g>
</svg>