<svg xmlns="http://www.w3.org/2000/svg" viewBox="0 0 23.35 20.8"><defs><style>.cls-1{fill:#fff;}</style></defs><title>20201201 RDPT Website</title><g id="txt"><path class="cls-1" d="M3.19,10.76a.46.46,0,0,0-.45.46.45.45,0,0,0,.45.45.46.46,0,0,0,.46-.45A.47.47,0,0,0,3.19,10.76Z"/><path class="cls-1" d="M23.35,12.36a2,2,0,0,0-.76-1.6,2.08,2.08,0,0,0,.74-1.94,2.12,2.12,0,0,0-2.11-1.71H16.87l.14-.4A5.82,5.82,0,0,0,15.36.46a1.93,1.93,0,0,0-3.07.81.51.51,0,0,0,0,.3,3.57,3.57,0,0,1,0,2.79A8.77,8.77,0,0,1,9.57,7.21a6.09,6.09,0,0,1-1,.62A4.24,4.24,0,0,0,7.14,8.94H5.47V8.48A.45.45,0,0,0,5,8H.46A.45.45,0,0,0,0,8.48V20.34a.46.46,0,0,0,.46.46H5a.46.46,0,0,0,.45-.46V19H8a7.23,7.23,0,0,0,4.82,1.83h5.71a2.05,2.05,0,0,0,1.71-3.2h.12a2,2,0,0,0,2.05-2.05A2,2,0,0,0,22,14.29,2.07,2.07,0,0,0,23.35,12.36ZM4.56,19.88H.91V8.94H4.56ZM21.3,13.5H16.92a.46.46,0,0,0,0,.91h3.47a1.14,1.14,0,0,1,0,2.28H16.92a.46.46,0,0,0-.45.46.45.45,0,0,0,.45.45h1.64a1.15,1.15,0,0,1,1.15,1.14,1.14,1.14,0,0,1-1.15,1.14H12.85a6.29,6.29,0,0,1-4.33-1.7.45.45,0,0,0-.31-.12H5.47V9.85H7.36a.45.45,0,0,0,.37-.19A3.22,3.22,0,0,1,9,8.64a8.58,8.58,0,0,0,1.12-.71C13.25,5.52,14,4,13.2,1.46a1,1,0,0,1,1.6-.28,4.87,4.87,0,0,1,1.34,5.24l-.23.69h-.58a.46.46,0,0,0,0,.92h5.89A1.2,1.2,0,0,1,22.43,9a1.15,1.15,0,0,1-1.13,1.34H16.92a.45.45,0,0,0-.45.45.46.46,0,0,0,.45.46H21.3a1.14,1.14,0,1,1,0,2.28Z"/><path class="cls-1" d="M3.19,12.59a.45.45,0,0,0-.45.45V17.6a.45.45,0,0,0,.45.46.46.46,0,0,0,.46-.46V13A.46.46,0,0,0,3.19,12.59Z"/></g></svg>