<svg xmlns="http://www.w3.org/2000/svg" viewBox="0 0 20.5 20.5"><defs><style>.cls-1{fill:#fff;}</style></defs><title>20201201 RDPT Website</title><g id="Pop_Up" data-name="Pop Up"><path class="cls-1" d="M19.62,10a.87.87,0,0,0-.87.88V18a.79.79,0,0,1-.79.79H2.54A.79.79,0,0,1,1.75,18V5.88a.79.79,0,0,1,.79-.8H5.46a.88.88,0,0,0,0-1.75H2.54A2.55,2.55,0,0,0,0,5.88V18A2.54,2.54,0,0,0,2.54,20.5H18A2.54,2.54,0,0,0,20.5,18V10.88A.87.87,0,0,0,19.62,10Z"/><path class="cls-1" d="M5,13a.87.87,0,0,0,.67.84.71.71,0,0,0,.2,0,.89.89,0,0,0,.8-.49,6.58,6.58,0,0,1,5.92-3.66h.74v2.46a.88.88,0,0,0,1.51.6l5.41-5.62a.88.88,0,0,0,0-1.22L14.84.27a.88.88,0,0,0-1-.21.89.89,0,0,0-.55.82V3.33A8.39,8.39,0,0,0,5,11.71Zm8.38-7.88h.83a.87.87,0,0,0,.87-.87V3.05L18.41,6.5,15.08,10V8.79a.87.87,0,0,0-.87-.87H12.59A8.35,8.35,0,0,0,7,10.1,6.63,6.63,0,0,1,13.38,5.08Z"/></g></svg>