<svg xmlns="http://www.w3.org/2000/svg" viewBox="0 0 28.61 32.27"><defs><style>.cls-1{fill:#fff;}</style></defs><title>20201201 RDPT Website</title><g id="txt"><path class="cls-1" d="M18.82,21.16h0L19,21c2.82-4.67,4.24-8.75,4.21-12.14A8.86,8.86,0,0,0,14.31,0h-.05A8.9,8.9,0,0,0,5.45,8.81c0,3.39,1.4,7.47,4.22,12.14l.12.2h0C3.84,21.92,0,24,0,26.58c0,3.19,6.28,5.69,14.31,5.69s14.3-2.5,14.3-5.69C28.61,24,24.77,21.92,18.82,21.16ZM14.31,1a7.75,7.75,0,0,1,7.76,7.72v.09c0,2.85-1.09,6.3-3.29,10.25a52,52,0,0,1-4.47,6.65,50.91,50.91,0,0,1-4.47-6.65c-2.21-3.95-3.32-7.4-3.3-10.25h0A7.75,7.75,0,0,1,14.26,1ZM10.44,22.18a50,50,0,0,0,3.45,4.75.54.54,0,0,0,.77.06l.06-.06a50.55,50.55,0,0,0,3.46-4.75c5.42.61,9.34,2.45,9.34,4.4,0,2.22-5.31,4.6-13.21,4.6S1.09,28.8,1.09,26.58C1.09,24.63,5,22.79,10.44,22.18Z"/><path class="cls-1" d="M5.15,28a13.81,13.81,0,0,0,5.15,1.48h.08a.54.54,0,0,0,.54-.54.55.55,0,0,0-.48-.54h0a13,13,0,0,1-4.72-1.32.54.54,0,1,0-.57.92Z"/><path class="cls-1" d="M13.05,29.74c.41,0,.84,0,1.26,0h.82a.55.55,0,0,0,.38-.16.58.58,0,0,0,.15-.39.53.53,0,0,0-.16-.38.55.55,0,0,0-.38-.16h0c-.67,0-1.35,0-2,0a.51.51,0,0,0-.39.15.55.55,0,0,0-.18.38.58.58,0,0,0,.15.39A.54.54,0,0,0,13.05,29.74Zm2-1Z"/><path class="cls-1" d="M14.31,12.88a4.07,4.07,0,1,0-4.07-4.07A4.08,4.08,0,0,0,14.31,12.88Zm0-1.09a3,3,0,1,1,0-6h0a3,3,0,0,1,0,6Z"/></g></svg>