<svg xmlns="http://www.w3.org/2000/svg" viewBox="0 0 34.79 34.27"><defs><style>.cls-1{fill:#fff;}</style></defs><title>20201201 RDPT Website</title><g id="txt"><path class="cls-1" d="M31.07,26h0a.51.51,0,0,0-.3-.15l-1.85-.28-.83-1.78a.55.55,0,0,0-.72-.26.57.57,0,0,0-.25.26l-.84,1.78-1.85.28a.54.54,0,0,0-.45.61.57.57,0,0,0,.15.3l1.35,1.39-.32,2a.55.55,0,0,0,.45.62.5.5,0,0,0,.34-.06l1.65-.91,1.65.91a.59.59,0,0,0,.26.07l.15,0a.52.52,0,0,0,.32-.26.54.54,0,0,0,.06-.35l-.32-2,1.36-1.39A.55.55,0,0,0,31.07,26ZM28.8,29.17l-.94-.52a.52.52,0,0,0-.52,0l-.94.52L26.59,28a.52.52,0,0,0-.15-.46l-.81-.84,1.1-.16a.54.54,0,0,0,.41-.31l.46-1,.47,1a.54.54,0,0,0,.41.31l1.09.16-.81.84h0a.52.52,0,0,0-.14.46Z"/><path class="cls-1" d="M.51,25.05A.51.51,0,0,0,1,24.54v-15H14.58A.5.5,0,0,0,15.09,9a.51.51,0,0,0-.51-.51H1V5.65A1.84,1.84,0,0,1,2.86,3.81h.56V4.89a1.71,1.71,0,0,0,.49,1.19,1.68,1.68,0,0,0,2.39,0,1.71,1.71,0,0,0,.49-1.19V3.81h3.72V4.89A1.71,1.71,0,0,0,11,6.08a1.68,1.68,0,0,0,2.39,0,1.71,1.71,0,0,0,.49-1.19V3.81h3.71V4.89a1.72,1.72,0,0,0,.5,1.19,1.68,1.68,0,0,0,1.19.5,1.64,1.64,0,0,0,1.19-.5A1.68,1.68,0,0,0,21,4.89V3.81h3.71V4.9a1.69,1.69,0,0,0,3.38,0V3.81h.56a1.84,1.84,0,0,1,1.84,1.84V8.47H16.89a.51.51,0,0,0-.51.51.51.51,0,0,0,.51.51H30.46V11a.51.51,0,0,0,1,0V5.65a2.87,2.87,0,0,0-2.86-2.86h-.56V1.7a1.66,1.66,0,0,0-.5-1.19,1.67,1.67,0,0,0-2.38,0,1.66,1.66,0,0,0-.5,1.19V2.79H21V1.69A1.64,1.64,0,0,0,20.47.5,1.64,1.64,0,0,0,19.28,0a1.68,1.68,0,0,0-1.19.5,1.69,1.69,0,0,0-.5,1.19v1.1H13.88V1.69a1.69,1.69,0,1,0-3.37,0v1.1H6.79V1.69a1.69,1.69,0,1,0-3.37,0v1.1H2.86A2.87,2.87,0,0,0,0,5.65V24.54A.51.51,0,0,0,.51,25.05ZM25.7,3.3V1.7A.67.67,0,0,1,27,1.7V4.9a.66.66,0,0,1-.2.47.65.65,0,0,1-.94,0,.66.66,0,0,1-.2-.47Zm-7.09,0V1.69a.66.66,0,0,1,.2-.47.63.63,0,0,1,.47-.2.62.62,0,0,1,.47.2.62.62,0,0,1,.2.47v3.2a.63.63,0,0,1-.2.47.66.66,0,0,1-.47.2.68.68,0,0,1-.67-.67Zm-7.08,0V1.69a.65.65,0,0,1,.19-.47A.64.64,0,0,1,12.2,1a.67.67,0,0,1,.66.67v3.2a.67.67,0,0,1-.19.47.69.69,0,0,1-.47.2.68.68,0,0,1-.48-.2.67.67,0,0,1-.19-.47Zm-7.09,0V1.69a.65.65,0,0,1,.19-.47A.66.66,0,0,1,5.11,1a.63.63,0,0,1,.47.2.65.65,0,0,1,.19.47v3.2a.67.67,0,0,1-.19.47.67.67,0,0,1-.47.2.7.7,0,0,1-.48-.2.67.67,0,0,1-.19-.47Z"/><path class="cls-1" d="M9.71,20.27h-6a.51.51,0,0,0-.51.51v6a.51.51,0,0,0,.51.51h6a.51.51,0,0,0,.51-.51v-6A.51.51,0,0,0,9.71,20.27Zm-.51,6h-5v-5h5Z"/><path class="cls-1" d="M10.22,12.16a.5.5,0,0,0-.51-.5h-6a.5.5,0,0,0-.51.5v6a.51.51,0,0,0,.51.51h6a.51.51,0,0,0,.51-.51Zm-1,5.51h-5v-5h5Z"/><path class="cls-1" d="M21.77,11.66a.5.5,0,0,0-.51.5v6a.51.51,0,0,0,.51.51h6a.51.51,0,0,0,.52-.51v-6a.51.51,0,0,0-.52-.5Zm5.51,6h-5v-5h5Z"/><path class="cls-1" d="M32.69,22a7.11,7.11,0,0,0-1.21-1V13.27a.51.51,0,0,0-1,0V20.5a7.12,7.12,0,0,0-2.85-.59,7.35,7.35,0,0,0-2.21.35,7.13,7.13,0,0,0-2,1,.51.51,0,1,0,.6.82,6.13,6.13,0,0,1,1.71-.87,6.3,6.3,0,0,1,1.9-.3,6.17,6.17,0,1,1-6.15,6.16,6.34,6.34,0,0,1,.26-1.81,6.47,6.47,0,0,1,.8-1.65.52.52,0,0,0-.14-.71.49.49,0,0,0-.7.14A7.27,7.27,0,0,0,20.75,25a7.38,7.38,0,0,0-.32,2.11,7.17,7.17,0,0,0,.41,2.38H2.65A1.61,1.61,0,0,1,1.5,29,1.59,1.59,0,0,1,1,27.84v-1a.51.51,0,1,0-1,0v1a2.66,2.66,0,0,0,2.65,2.65H21.29a7.07,7.07,0,0,0,1.25,1.68A7.18,7.18,0,0,0,32.69,22Z"/><path class="cls-1" d="M19.26,12.16a.5.5,0,0,0-.51-.5h-6a.5.5,0,0,0-.51.5v6a.51.51,0,0,0,.51.51h6a.51.51,0,0,0,.51-.51Zm-1,5.51h-5v-5h5Z"/><path class="cls-1" d="M18.75,20.27h-6a.51.51,0,0,0-.51.51v6a.51.51,0,0,0,.51.51h6a.51.51,0,0,0,.51-.51v-6A.51.51,0,0,0,18.75,20.27Zm-.51,6h-5v-5h5Z"/></g></svg>