<svg xmlns="http://www.w3.org/2000/svg" viewBox="0 0 44.8 40.7"><defs><style>.cls-1{fill:#fff;}</style></defs><title>20201201 RDPT Website</title><g id="txt"><path class="cls-1" d="M43.93,17.43a.82.82,0,0,0-.88.87V29.58a2.2,2.2,0,0,1-2.2,2.19H38.8a2.86,2.86,0,0,0-2.92,2.93v2a2.21,2.21,0,0,1-2.2,2.2H2.93a1.11,1.11,0,0,1-1.18-1.18V18.3a.81.81,0,0,0-.87-.87A.82.82,0,0,0,0,18.3V37.77A2.87,2.87,0,0,0,2.93,40.7H35a4.63,4.63,0,0,0,3.47-1.49l4.83-4.82a5.09,5.09,0,0,0,1.49-3.48V18.3A.81.81,0,0,0,43.93,17.43Zm-6.41,20.4v-.36a1.77,1.77,0,0,1,0-.32,1.6,1.6,0,0,0,.06-.4v-2a1.11,1.11,0,0,1,1.17-1.17h2.05a1.75,1.75,0,0,0,.67-.1l.6-.2Z"/><path class="cls-1" d="M44,3.92a2.88,2.88,0,0,0-2.08-.84H34.55V.88a.88.88,0,1,0-1.75,0v2.2H12V.88A.82.82,0,0,0,11.12,0a.82.82,0,0,0-.87.88v2.2H2.93A2.86,2.86,0,0,0,0,6v8.2a.82.82,0,0,0,.88.88H43.93a.82.82,0,0,0,.87-.88V6A2.92,2.92,0,0,0,44,3.92Zm-.91,9.41H1.75V6A1.11,1.11,0,0,1,2.93,4.83h7.32v2.6l-.08,0a1.82,1.82,0,0,0-.94,1.61,1.9,1.9,0,1,0,3.79,0,1.82,1.82,0,0,0-.94-1.61l-.08,0V4.83H32.8v2.6l-.08,0a1.83,1.83,0,0,0-.95,1.61,1.91,1.91,0,0,0,3.81,0,1.83,1.83,0,0,0-.95-1.61l-.08,0V4.83h7.33A1.11,1.11,0,0,1,43.05,6Z"/><path class="cls-1" d="M18.3,23.27a1.9,1.9,0,1,0-1.9-1.89A1.9,1.9,0,0,0,18.3,23.27Z"/><circle class="cls-1" cx="26.5" cy="21.38" r="1.9"/><circle class="cls-1" cx="34.7" cy="21.38" r="1.9"/><circle class="cls-1" cx="10.1" cy="30.6" r="1.9"/><path class="cls-1" d="M18.3,32.5a1.9,1.9,0,1,0-1.9-1.9A1.9,1.9,0,0,0,18.3,32.5Z"/><circle class="cls-1" cx="26.5" cy="30.6" r="1.9"/></g></svg>