<svg xmlns="http://www.w3.org/2000/svg" viewBox="0 0 27 27"><defs><style>.cls-1{fill:#fff;}</style></defs><title>20201201 RDPT Website</title><g id="txt"><path class="cls-1" d="M16.08,13.5a2.58,2.58,0,1,1-2.58-2.58A2.57,2.57,0,0,1,16.08,13.5Z"/><path class="cls-1" d="M19.54,8.93a2.57,2.57,0,0,0-1.47-1.47,4,4,0,0,0-1.44-.27c-.82,0-1.06-.05-3.13-.05s-2.32,0-3.13.05a4,4,0,0,0-1.44.27A2.57,2.57,0,0,0,7.46,8.93a4,4,0,0,0-.27,1.44c0,.82-.05,1.06-.05,3.13s0,2.32.05,3.13a4,4,0,0,0,.27,1.44,2.57,2.57,0,0,0,1.47,1.47,4,4,0,0,0,1.44.27c.81,0,1.06.05,3.13.05s2.32,0,3.13-.05a4,4,0,0,0,1.44-.27,2.54,2.54,0,0,0,1.47-1.47,4,4,0,0,0,.27-1.44c0-.81.05-1.06.05-3.13s0-2.31-.05-3.13A4,4,0,0,0,19.54,8.93Zm-6,8.55a4,4,0,1,1,4-4A4,4,0,0,1,13.5,17.48Zm4.14-7.19a.93.93,0,0,1,0-1.86.93.93,0,0,1,0,1.86Z"/><path class="cls-1" d="M13.5,0A13.5,13.5,0,1,0,27,13.5,13.51,13.51,0,0,0,13.5,0Zm7.71,16.7a5.57,5.57,0,0,1-.37,1.88,3.93,3.93,0,0,1-2.26,2.26,5.57,5.57,0,0,1-1.88.37c-.83,0-1.09,0-3.2,0s-2.37,0-3.2,0a5.57,5.57,0,0,1-1.88-.37A3.73,3.73,0,0,1,7.05,20a3.86,3.86,0,0,1-.89-1.37A5.35,5.35,0,0,1,5.8,16.7c0-.83,0-1.09,0-3.2s0-2.37,0-3.2a5.85,5.85,0,0,1,.36-1.88,3.89,3.89,0,0,1,.9-1.37,3.73,3.73,0,0,1,1.37-.89,5.57,5.57,0,0,1,1.88-.37c.83,0,1.09,0,3.2,0s2.37,0,3.2,0a5.62,5.62,0,0,1,1.88.35,3.89,3.89,0,0,1,1.37.9,3.73,3.73,0,0,1,.89,1.37,5.57,5.57,0,0,1,.37,1.88c0,.83,0,1.09,0,3.2S21.24,15.87,21.21,16.7Z"/></g></svg>