<svg xmlns="http://www.w3.org/2000/svg" viewBox="0 0 21.5 20.6"><defs><style>.cls-1{fill:#fff;}</style></defs><title>20201201 RDPT Website</title><g id="txt"><path class="cls-1" d="M21.32,10.49a.57.57,0,0,0,.18-.43.6.6,0,0,0-.18-.43h0l-9-9a2.33,2.33,0,0,0-3.13,0l-9.06,9a.6.6,0,0,0,0,.86.6.6,0,0,0,.86,0l1.11-1.1v8A3.19,3.19,0,0,0,5.34,20.6H8.43A.61.61,0,0,0,9,20V12.73h3.51V20a.61.61,0,0,0,.61.61h3a3.19,3.19,0,0,0,3.19-3.19.61.61,0,0,0-.61-.61.61.61,0,0,0-.61.61,2,2,0,0,1-2,2H13.77V12.12a.62.62,0,0,0-.61-.61H8.43a.61.61,0,0,0-.61.61v7.26H5.34a2,2,0,0,1-2-2V8.19l.07-.09,6.62-6.61a1.12,1.12,0,0,1,1.45,0l6.62,6.67v5a.61.61,0,0,0,.61.61.61.61,0,0,0,.61-.61V9.38l1.11,1.11A.62.62,0,0,0,21.32,10.49Z"/></g></svg>