<svg xmlns="http://www.w3.org/2000/svg" viewBox="0 0 27 27"><defs><style>.cls-1{fill:#fff;}</style></defs><title>20201201 RDPT Website</title><g id="txt"><path class="cls-1" d="M13.5,0A13.5,13.5,0,1,1,0,13.5,13.49,13.49,0,0,1,13.5,0Zm4.86,8.3a3,3,0,0,0-2.43,1.24,3,3,0,0,0-4.86,0A3,3,0,0,0,5.63,11.3a3,3,0,0,0,1,2.2,3,3,0,0,0-1,2.2,3,3,0,0,0,5.44,1.76,3,3,0,0,0,4.86,0,3,3,0,0,0,5.44-1.76,3,3,0,0,0-1-2.2,3,3,0,0,0,1-2.2A3,3,0,0,0,18.36,8.3Zm0,1.6A1.4,1.4,0,1,1,17,11.3,1.39,1.39,0,0,1,18.36,9.9Zm-2.43,4a2.73,2.73,0,0,0-.39-.44,2.73,2.73,0,0,0,.39-.44,3.31,3.31,0,0,0,.39.44A3.31,3.31,0,0,0,15.93,13.94Zm-2.43-4a1.4,1.4,0,1,1-1.4,1.4A1.4,1.4,0,0,1,13.5,9.9Zm-2.82,3.6a3.31,3.31,0,0,0,.39-.44,2.73,2.73,0,0,0,.39.44,2.73,2.73,0,0,0-.39.44A3.31,3.31,0,0,0,10.68,13.5Zm-2-3.6a1.4,1.4,0,1,1-1.4,1.4A1.4,1.4,0,0,1,8.64,9.9Zm0,7.2A1.4,1.4,0,1,1,10,15.7,1.39,1.39,0,0,1,8.64,17.1Zm4.86,0a1.4,1.4,0,1,1,1.4-1.4A1.4,1.4,0,0,1,13.5,17.1Zm4.86,0a1.4,1.4,0,1,1,1.4-1.4A1.4,1.4,0,0,1,18.36,17.1Z"/></g></svg>