<svg xmlns="http://www.w3.org/2000/svg" viewBox="0 0 25 25"><defs><style>.cls-1{fill:#fff;}</style></defs><title>20201201 RDPT Website</title><g id="txt"><path class="cls-1" d="M22.92,1.67h-2.5V1.25a1.25,1.25,0,0,0-2.5,0v.42H13.75V1.25a1.25,1.25,0,0,0-2.5,0v.42H7.08V1.25a1.25,1.25,0,0,0-2.5,0v.42H2.08A2.08,2.08,0,0,0,0,3.75V22.92A2.08,2.08,0,0,0,2.08,25H22.92A2.08,2.08,0,0,0,25,22.92V3.75A2.08,2.08,0,0,0,22.92,1.67Zm-4.17-.42a.42.42,0,0,1,.42-.42.41.41,0,0,1,.41.42v2.5a.41.41,0,0,1-.41.42.42.42,0,0,1-.42-.42Zm-6.67,0a.42.42,0,0,1,.84,0v2.5a.42.42,0,0,1-.84,0Zm-6.66,0A.41.41,0,0,1,5.83.83a.42.42,0,0,1,.42.42v2.5a.42.42,0,0,1-.42.42.41.41,0,0,1-.41-.42ZM2.08,2.5h2.5V3.75a1.25,1.25,0,0,0,2.5,0V2.5h4.17V3.75a1.25,1.25,0,0,0,2.5,0V2.5h4.17V3.75a1.25,1.25,0,0,0,2.5,0V2.5h2.5a1.25,1.25,0,0,1,1.25,1.25V6.67H.83V3.75A1.25,1.25,0,0,1,2.08,2.5ZM22.92,24.17H2.08A1.25,1.25,0,0,1,.83,22.92V7.5H24.17V22.92A1.25,1.25,0,0,1,22.92,24.17Z"/><path class="cls-1" d="M15.9,14.63l-2.09-.31-.93-2a.43.43,0,0,0-.56-.2.39.39,0,0,0-.2.2l-.93,2-2.09.31a.43.43,0,0,0-.35.48.46.46,0,0,0,.12.23l1.52,1.56L10,19.1a.42.42,0,0,0,.34.48.41.41,0,0,0,.27,0l1.86-1,1.86,1a.41.41,0,0,0,.56-.16A.37.37,0,0,0,15,19.1l-.36-2.2,1.52-1.56a.41.41,0,0,0,0-.59.48.48,0,0,0-.22-.12Zm-2,1.83a.41.41,0,0,0-.11.36L14,18.39l-1.31-.73a.41.41,0,0,0-.4,0L11,18.39l.25-1.57a.41.41,0,0,0-.11-.36L10,15.34l1.5-.23a.42.42,0,0,0,.32-.24l.65-1.39.65,1.39a.42.42,0,0,0,.32.24l1.5.23Z"/></g></svg>