<svg xmlns="http://www.w3.org/2000/svg" viewBox="0 0 31.52 17.91"><defs><style>.cls-1{fill:#fff;}</style></defs><title>20201201 RDPT Website</title><g id="txt"><path class="cls-1" d="M31,7.45a.68.68,0,0,0-1-.12.68.68,0,0,0-.12,1,1.1,1.1,0,0,1,0,1.33,18,18,0,0,1-7.48,5.64l-.52.21.38-.41a8.94,8.94,0,0,0,0-12.19l-.38-.41.52.21a17.87,17.87,0,0,1,4.67,2.76l.52.44a.67.67,0,0,0,1-.06.6.6,0,0,0,.17-.49.66.66,0,0,0-.23-.47L28,4.37A19.32,19.32,0,0,0,.52,7.45a2.45,2.45,0,0,0,0,3,19.21,19.21,0,0,0,15.24,7.45A19.22,19.22,0,0,0,31,10.46,2.45,2.45,0,0,0,31,7.45ZM9.08,15.26A17.91,17.91,0,0,1,1.6,9.62a1.07,1.07,0,0,1,0-1.33A17.91,17.91,0,0,1,9.08,2.65l.52-.21-.39.41a8.94,8.94,0,0,0,0,12.21l.39.4Zm6.69,1.28A7.59,7.59,0,1,1,23.34,9,7.61,7.61,0,0,1,15.77,16.54Z"/><path class="cls-1" d="M15.76,5.64A3.31,3.31,0,1,0,19.07,9,3.31,3.31,0,0,0,15.76,5.64Zm0,5.25A1.94,1.94,0,1,1,17.7,9,1.94,1.94,0,0,1,15.76,10.89Z"/></g></svg>