<svg xmlns="http://www.w3.org/2000/svg" viewBox="0 0 42.5 45.5"><defs><style>.cls-1{fill:#fff;}</style></defs><title>20201201 RDPT Website</title><g id="txt"><path class="cls-1" d="M32.5,6H10a4,4,0,0,0-4,4V33.25a1,1,0,0,0,2,0V10a2,2,0,0,1,2-2H32.5a2,2,0,0,1,2,2V41.5a2,2,0,0,1-4,0V37.75A1.75,1.75,0,0,0,28.75,36h-27A1.75,1.75,0,0,0,0,37.75V41.5a4,4,0,0,0,4,4H32.5a4,4,0,0,0,4-4V10A4,4,0,0,0,32.5,6ZM29,43.5H4a2,2,0,0,1-2-2V38H28.5v3.5A4,4,0,0,0,29,43.5Z"/><path class="cls-1" d="M28.75,15.5a1,1,0,0,0,0-2h-12a1,1,0,0,0,0,2Z"/><path class="cls-1" d="M12,19a1,1,0,0,0,1,1H28.75a1,1,0,0,0,0-2H13A1,1,0,0,0,12,19Z"/><path class="cls-1" d="M13,24.5H28.75a1,1,0,0,0,0-2H13a1,1,0,0,0,0,2Z"/><path class="cls-1" d="M13,29H28.75a1,1,0,0,0,0-2H13a1,1,0,0,0,0,2Z"/><path class="cls-1" d="M13,33.5H25.75a1,1,0,0,0,0-2H13a1,1,0,0,0,0,2Z"/><path class="cls-1" d="M38.5,0H16a4,4,0,0,0-4,4,1,1,0,0,0,2,0,2,2,0,0,1,2-2H38.5a2,2,0,0,1,2,2V35.5a2,2,0,0,1-2,2,1,1,0,0,0,0,2,4,4,0,0,0,4-4V4A4,4,0,0,0,38.5,0Z"/></g></svg>