<svg xmlns="http://www.w3.org/2000/svg" viewBox="0 0 42 42"><defs><style>.cls-1{fill:#fff;}</style></defs><title>20201201 RDPT Website</title><g id="txt"><path class="cls-1" d="M6.23,31.66H35.77a.82.82,0,0,0,.82-.82V6.23a.82.82,0,0,0-.82-.82H6.23a.82.82,0,0,0-.82.82V30.84A.82.82,0,0,0,6.23,31.66Zm18.84-8.51-1.61,1.61-4.34-4.34a.82.82,0,0,0-1.16,0L16.08,22.3,13.9,20.12l4.64-7.42ZM13,21.55,15.5,24a.83.83,0,0,0,.58.24.84.84,0,0,0,.58-.24l1.88-1.88,4.34,4.34a.82.82,0,0,0,1.16,0L26,24.58,29.36,30H7.71ZM31.3,30c-.72-1.14-4.94-7.9-5.61-9l2.69-3.59L35,26.2V30ZM35,7.05V23.46L29,15.59a.82.82,0,0,0-.66-.33.79.79,0,0,0-.65.33l-3,4-5.52-8.83a.81.81,0,0,0-.69-.38.83.83,0,0,0-.7.38L7.05,28V7.05Z"/><path class="cls-1" d="M35.77,35H25.92a.82.82,0,0,0,0,1.64h9.85a.82.82,0,0,0,0-1.64Z"/><circle class="cls-1" cx="21" cy="41.18" r="0.82"/><path class="cls-1" d="M41.18,0H.82A.82.82,0,0,0,0,.82V41.18A.82.82,0,0,0,.82,42H17.31a.82.82,0,0,0,0-1.64H1.64V1.64H40.36V40.36H24.69a.82.82,0,0,0,0,1.64H41.18a.82.82,0,0,0,.82-.82V.82A.82.82,0,0,0,41.18,0Z"/></g></svg>