<svg xmlns="http://www.w3.org/2000/svg" viewBox="0 0 42.88 40"><defs><style>.cls-1{fill:#fff;}</style></defs><title>20201201 RDPT Website</title><g id="txt"><path class="cls-1" d="M12.55,19.19H10.13V11.14a.63.63,0,0,0-1.25,0v8.68a.64.64,0,0,0,.52.62c.18,0,2.94,0,3.15,0a.61.61,0,0,0,.62-.63.62.62,0,0,0-.62-.62Z"/><path class="cls-1" d="M16.39,10.52a.63.63,0,0,0-.63.62v8.68a.63.63,0,0,0,.63.63.63.63,0,0,0,.63-.63V11.14A.63.63,0,0,0,16.39,10.52Z"/><path class="cls-1" d="M33.37,11.81a.63.63,0,0,0,.63-.63.63.63,0,0,0-.63-.63H29.75a.63.63,0,0,0-.63.63v8.6a.63.63,0,0,0,.63.63h3.62a.63.63,0,1,0,0-1.25h-3V16.11h2.73a.63.63,0,1,0,0-1.25H30.38v-3Z"/><path class="cls-1" d="M26.36,10.56a.63.63,0,0,0-.8.4l-2.43,7.32-2.55-7.34a.63.63,0,1,0-1.19.41l3,8.55a.83.83,0,0,0,.78.55h0a.82.82,0,0,0,.78-.56l2.83-8.53a.63.63,0,0,0-.39-.8Z"/><path class="cls-1" d="M36.29,7.06H6.59A2.54,2.54,0,0,0,4.06,9.59V21.38A2.53,2.53,0,0,0,6.59,23.9h29.7a2.53,2.53,0,0,0,2.53-2.52V9.59A2.54,2.54,0,0,0,36.29,7.06Zm1.27,14.32a1.27,1.27,0,0,1-1.27,1.27H6.59a1.27,1.27,0,0,1-1.27-1.27V9.59A1.27,1.27,0,0,1,6.59,8.32h29.7a1.27,1.27,0,0,1,1.27,1.27Z"/><path class="cls-1" d="M42.25,24.34a.63.63,0,0,0-.63.63v.51A3.66,3.66,0,0,1,38,29.13H28.62a2.19,2.19,0,0,0-1.89,1.09L22,38.44a.61.61,0,0,1-1.06,0l-4.76-8.22a2.19,2.19,0,0,0-1.89-1.09H4.91a3.66,3.66,0,0,1-3.65-3.65V4.91A3.66,3.66,0,0,1,4.91,1.26h.54A.63.63,0,0,0,6.08.63.63.63,0,0,0,5.45,0H4.91A4.91,4.91,0,0,0,0,4.91V25.48a4.91,4.91,0,0,0,4.91,4.91h9.35a.93.93,0,0,1,.8.46l4.76,8.22a1.88,1.88,0,0,0,3.24,0l4.76-8.22a.93.93,0,0,1,.8-.46H38a4.91,4.91,0,0,0,4.91-4.91V25a.63.63,0,0,0-.63-.63Z"/><path class="cls-1" d="M38,0H8.38a.63.63,0,0,0-.62.63.63.63,0,0,0,.62.63H38a3.66,3.66,0,0,1,3.65,3.65v17.2a.63.63,0,1,0,1.26,0V4.91A4.91,4.91,0,0,0,38,0Z"/></g></svg>