<svg xmlns="http://www.w3.org/2000/svg" viewBox="0 0 23.03 20.71"><title>20201201 RDPT Website</title><g id="txt"><path d="M22.83,18.37,13.22.81a1.6,1.6,0,0,0-2.76,0l-5.25,9a.59.59,0,0,0,.23.83.58.58,0,0,0,.84-.21l5.26-9a.31.31,0,0,1,.29-.17.34.34,0,0,1,.3.18L21.75,19a.35.35,0,0,1,0,.33.34.34,0,0,1-.29.17H1.58a.32.32,0,0,1-.29-.17.32.32,0,0,1,0-.34l3.2-5.49a.58.58,0,0,0-.23-.83.59.59,0,0,0-.84.21L.21,18.33a1.57,1.57,0,0,0,0,1.58,1.57,1.57,0,0,0,1.36.8H21.45a1.59,1.59,0,0,0,1.38-2.34Z"/><path d="M11.65,13.35h0A1.33,1.33,0,0,0,13,12.11l.34-4.64A1.33,1.33,0,0,0,12,6h-.68A1.33,1.33,0,0,0,10,7.47l.33,4.64A1.34,1.34,0,0,0,11.65,13.35Zm-.44-6a.15.15,0,0,1,0-.07.09.09,0,0,1,.07,0H12a.15.15,0,0,1,.07,0,.14.14,0,0,1,0,.07L11.74,12c0,.1-.18.1-.19,0Z"/><path d="M11.65,17.43a1.78,1.78,0,1,0-1.78-1.78A1.78,1.78,0,0,0,11.65,17.43Zm0-2.32a.54.54,0,1,1-.54.54A.54.54,0,0,1,11.65,15.11Z"/><path d="M4.83,12.25a.63.63,0,0,0,.62-.62A.64.64,0,0,0,4.83,11a.63.63,0,0,0-.62.6.59.59,0,0,0,.17.45A.64.64,0,0,0,4.83,12.25Z"/></g></svg>