<svg xmlns="http://www.w3.org/2000/svg" viewBox="0 0 76 76"><defs><style>.cls-1{fill:#db2c2c;}.cls-2{fill:#fff;}</style></defs><title>20201201 RDPT Website</title><g id="txt"><path class="cls-1" d="M38,76A38,38,0,1,1,76,38,38,38,0,0,1,38,76ZM38,6A32,32,0,1,0,70,38,32,32,0,0,0,38,6Z"/><path class="cls-2" d="M38,42.11h0a3.32,3.32,0,0,0,3.3-3.06l1-13.19a3.37,3.37,0,0,0-.88-2.5A3.3,3.3,0,0,0,39,22.31H37a3.3,3.3,0,0,0-2.42,1.05,3.37,3.37,0,0,0-.88,2.5l1,13.19A3.32,3.32,0,0,0,38,42.11Zm-1.52-17a.75.75,0,0,1,.56-.24H39a.77.77,0,0,1,.77.82l-1,13.19a.78.78,0,0,1-.77.72h0a.78.78,0,0,1-.77-.72l-1-13.19a.75.75,0,0,1,.21-.58Z"/><path class="cls-2" d="M38,53.69a4.56,4.56,0,1,0-4.56-4.56A4.56,4.56,0,0,0,38,53.69Zm0-6.58a2,2,0,1,1-2,2A2,2,0,0,1,38,47.11Z"/></g></svg>