<svg xmlns="http://www.w3.org/2000/svg" viewBox="0 0 19.75 19.75"><title>20201201 RDPT Website</title><g id="txt"><path d="M6.09,10.66a.66.66,0,0,0,0,1.32h7.53a.66.66,0,0,0,0-1.32Z"/><path d="M12.19,3.78a.66.66,0,0,0,.65.66h2.47V6.91a.66.66,0,0,0,.66.65.65.65,0,0,0,.65-.65V4.44h2.47a.66.66,0,1,0,0-1.32H16.62V.66A.65.65,0,0,0,16,0a.66.66,0,0,0-.66.66V3.12H12.84A.66.66,0,0,0,12.19,3.78Z"/><path d="M17.79,11.58h-.1l-.27-1.94a.66.66,0,0,0-1.3.18l.35,2.5a.67.67,0,0,0,.65.57h.41a.91.91,0,1,1,0,1.81H2.22a.91.91,0,1,1,0-1.81h.41a.67.67,0,0,0,.65-.57l.84-6a5.76,5.76,0,0,1,2.5-4,6.1,6.1,0,0,1,3.33-1,5.91,5.91,0,0,1,2.2.46A.66.66,0,0,0,13,1.43a.66.66,0,0,0-.34-.87A7.21,7.21,0,0,0,5.9,1.2,7.07,7.07,0,0,0,2.82,6.13l-.76,5.44H2A2.22,2.22,0,0,0,2.22,16H17.53a2.22,2.22,0,0,0,.26-4.42Z"/><path d="M11.54,17.07a.65.65,0,0,0-.48.14.66.66,0,0,0-.25.44.89.89,0,0,1-.9.79.91.91,0,0,1-.9-.79.65.65,0,0,0-.24-.44.68.68,0,0,0-.41-.14H8.29a.64.64,0,0,0-.44.25.65.65,0,0,0-.14.48,2.22,2.22,0,0,0,4.41,0A.67.67,0,0,0,11.54,17.07Z"/></g></svg>