<svg xmlns="http://www.w3.org/2000/svg" viewBox="0 0 32.33 31.95"><defs><style>.cls-1{fill:#fff;}</style></defs><title>20201201 RDPT Website</title><g id="txt"><path class="cls-1" d="M21.62,18.06a1.41,1.41,0,0,1,1.49,1.3.55.55,0,1,0,1.09,0,2.43,2.43,0,0,0-2-2.32l-.07,0v-.4a.55.55,0,0,0-.55-.54.54.54,0,0,0-.54.54V17L21,17a2.42,2.42,0,0,0-2,2.32,2.48,2.48,0,0,0,2.57,2.39,1.31,1.31,0,1,1-1.48,1.3.55.55,0,0,0-.55-.55.55.55,0,0,0-.54.55,2.42,2.42,0,0,0,2,2.32h.07v.35a.55.55,0,0,0,.54.55.55.55,0,0,0,.55-.55v-.35h.07a2.43,2.43,0,0,0,2-2.32,2.49,2.49,0,0,0-2.58-2.39,1.31,1.31,0,1,1,0-2.6Z"/><path class="cls-1" d="M28.5,16.84a8.17,8.17,0,0,0-3.34-3,.69.69,0,0,0-.24-.05.55.55,0,0,0-.49.31.55.55,0,0,0,.26.73,7.08,7.08,0,0,1,3.19,9.69.53.53,0,0,0,.22.74.58.58,0,0,0,.26.06.56.56,0,0,0,.48-.28,8.26,8.26,0,0,0,.95-3.83A8.08,8.08,0,0,0,28.5,16.84Z"/><path class="cls-1" d="M22.58,14.17h0a.54.54,0,0,0,.54-.54.56.56,0,0,0-.15-.39.57.57,0,0,0-.39-.16h0a.55.55,0,1,0,0,1.09Z"/><path class="cls-1" d="M18.57,27.62a7.06,7.06,0,0,1-3.19-9.69.56.56,0,0,0,0-.42.54.54,0,0,0-.52-.38.55.55,0,0,0-.49.28,8.27,8.27,0,0,0-.95,3.84,8.18,8.18,0,0,0,4.63,7.36.69.69,0,0,0,.24.05.54.54,0,0,0,.49-.31A.55.55,0,0,0,18.57,27.62Z"/><path class="cls-1" d="M20.67,28.32h0a.55.55,0,0,0-.55.54.53.53,0,0,0,.16.39.55.55,0,0,0,.38.16h0a.55.55,0,1,0,0-1.09Z"/><path class="cls-1" d="M24.49,10.93h0v0a3.15,3.15,0,0,0-.28-.51l-.09-.14h1.82a2.83,2.83,0,1,0,0-5.66H20.63l.09-.14a2.76,2.76,0,0,0,.5-1.6A2.83,2.83,0,0,0,18.39,0H2.83a2.83,2.83,0,0,0,0,5.66H8.09L8,5.8a2.8,2.8,0,0,0-.5,1.6A2.76,2.76,0,0,0,8,9l.1.14H6.26a2.83,2.83,0,0,0-1.76,5l.09.07-.09.07a2.83,2.83,0,0,0,0,4.43l.09.07-.09.07a2.83,2.83,0,0,0,0,4.43l.09.07-.09.07a2.83,2.83,0,0,0,1.76,5.05h7.52l0,0A10.7,10.7,0,1,0,24.49,10.93Zm1.39-5.27a1.74,1.74,0,1,1,0,3.48H10.32a1.74,1.74,0,1,1,0-3.48Zm-23-1.09a1.74,1.74,0,0,1,0-3.48H18.39a1.74,1.74,0,0,1,0,3.48ZM4.52,12a1.75,1.75,0,0,1,1.74-1.74H21.82a1.7,1.7,0,0,1,.76.18l.43.21-.48,0c-.3,0-.61,0-.9,0a10.65,10.65,0,0,0-7.58,3.15l0,0H6.26A1.74,1.74,0,0,1,4.52,12Zm0,4.58a1.74,1.74,0,0,1,1.74-1.74h6.82L13,15a10.61,10.61,0,0,0-1.61,3.27l0,.07H6.26A1.74,1.74,0,0,1,4.52,16.55Zm0,4.57a1.74,1.74,0,0,1,1.74-1.74h4.82v.1a10.49,10.49,0,0,0-.15,1.77A11.07,11.07,0,0,0,11,22.76v.1H6.26A1.74,1.74,0,0,1,4.52,21.12Zm1.74,6.31a1.74,1.74,0,0,1,0-3.48h5l0,.07a10.47,10.47,0,0,0,1.51,3.27l.09.14Zm15.37,3.43a9.62,9.62,0,1,1,9.61-9.61A9.63,9.63,0,0,1,21.63,30.86Z"/></g></svg>