<svg xmlns="http://www.w3.org/2000/svg" viewBox="0 0 20 20"><defs><style>.cls-1{fill:#fff;}</style></defs><title>20201201 RDPT Website</title><g id="txt"><path class="cls-1" d="M19.37,10a.63.63,0,0,0-.62.63v7.08a1,1,0,0,1-1,1H2.29a1,1,0,0,1-1-1V5.63a1,1,0,0,1,1-1H5.21a.63.63,0,0,0,0-1.25H2.29A2.3,2.3,0,0,0,0,5.63V17.71A2.3,2.3,0,0,0,2.29,20H17.71A2.3,2.3,0,0,0,20,17.71V10.63A.63.63,0,0,0,19.37,10Z"/><path class="cls-1" d="M5,12.71a.62.62,0,0,0,.49.6h.13A.64.64,0,0,0,6.19,13a6.84,6.84,0,0,1,6.15-3.8h1v2.71a.64.64,0,0,0,.39.58.65.65,0,0,0,.69-.15l5.41-5.63a.6.6,0,0,0,0-.86L14.41.19a.63.63,0,0,0-.69-.14.62.62,0,0,0-.39.58v2.7h-.21A8.13,8.13,0,0,0,5,11.46Zm8.12-8.13H14A.62.62,0,0,0,14.58,4V2.18l3.93,4.07-3.93,4.08V8.54A.62.62,0,0,0,14,7.92H12.34a8.09,8.09,0,0,0-6,2.68A6.89,6.89,0,0,1,13.12,4.58Z"/></g></svg>