<svg xmlns="http://www.w3.org/2000/svg" viewBox="0 0 27 27"><defs><style>.cls-1{fill:#000;}</style></defs><title>20201201 RDPT Website</title><g id="txt"><path class="cls-1" d="M24.85,13.07H20.42A23.78,23.78,0,0,0,19.57,7h2.9a.43.43,0,0,0,.43-.43.43.43,0,0,0-.43-.43H19.31a13.27,13.27,0,0,0-1.76-3.6.42.42,0,0,0-.6-.1.43.43,0,0,0-.1.6,12.3,12.3,0,0,1,1.55,3.1H13.93v-4a.43.43,0,0,0-.86,0v4H8.6A12.3,12.3,0,0,1,10.15,3a.43.43,0,0,0-.1-.6.42.42,0,0,0-.6.1,13.27,13.27,0,0,0-1.76,3.6H4.53a.44.44,0,0,0-.44.43A.44.44,0,0,0,4.53,7h2.9a23.78,23.78,0,0,0-.85,6.07H2.15a.43.43,0,0,0,0,.86H6.58A23.78,23.78,0,0,0,7.43,20H4.53a.44.44,0,0,0-.44.43.44.44,0,0,0,.44.43H7.69a13.27,13.27,0,0,0,1.76,3.6.41.41,0,0,0,.35.18.39.39,0,0,0,.25-.08.43.43,0,0,0,.1-.6,12.3,12.3,0,0,1-1.55-3.1h4.47v4a.43.43,0,0,0,.86,0v-4H18.4A12.3,12.3,0,0,1,16.85,24a.43.43,0,0,0,.1.6.39.39,0,0,0,.25.08.41.41,0,0,0,.35-.18,13.27,13.27,0,0,0,1.76-3.6h3.16a.44.44,0,0,0,.44-.43.44.44,0,0,0-.44-.43h-2.9a23.78,23.78,0,0,0,.85-6.07h4.43a.43.43,0,0,0,0-.86ZM18.68,7a23.51,23.51,0,0,1,.88,6.07H13.93V7ZM8.32,7h4.75v6.07H7.44A23.51,23.51,0,0,1,8.32,7Zm0,13a23.51,23.51,0,0,1-.88-6.07h5.63V20Zm10.36,0H13.93V13.93h5.63A23.51,23.51,0,0,1,18.68,20Z"/><path class="cls-1" d="M23.05,4A13.52,13.52,0,0,0,4,4a13.51,13.51,0,0,0-1.72,17L.58,25.88a.45.45,0,0,0,.1.44.45.45,0,0,0,.44.1l5-1.65A13.5,13.5,0,0,0,23.05,4ZM13.5,26.14a12.53,12.53,0,0,1-7.12-2.2.42.42,0,0,0-.24-.07.32.32,0,0,0-.14,0L1.67,25.33,3.11,21a.46.46,0,0,0,0-.38A12.64,12.64,0,1,1,13.5,26.14Z"/></g></svg>