<svg xmlns="http://www.w3.org/2000/svg" viewBox="0 0 34.41 48"><defs><style>.cls-1{fill:#fff;}</style></defs><title>20201201 RDPT Website</title><g id="txt"><path class="cls-1" d="M5.2,46.59H3.52a2.1,2.1,0,0,1-2.11-2.11V12a.71.71,0,0,0-.71-.71A.7.7,0,0,0,0,12V44.48A3.53,3.53,0,0,0,3.52,48H5.2a.7.7,0,0,0,.7-.7A.7.7,0,0,0,5.2,46.59Z"/><path class="cls-1" d="M33.7,41.28A.7.7,0,0,0,33,42v2.49a2.11,2.11,0,0,1-2.11,2.11H8.19a.7.7,0,0,0-.7.71.7.7,0,0,0,.7.7h22.7a3.53,3.53,0,0,0,3.52-3.52V42A.71.71,0,0,0,33.7,41.28Z"/><path class="cls-1" d="M30.89,3.47H24V1.64A1.65,1.65,0,0,0,22.36,0H12.05a1.64,1.64,0,0,0-1.64,1.64V3.47H3.52A3.52,3.52,0,0,0,0,7V9a.7.7,0,0,0,.7.71A.71.71,0,0,0,1.41,9V7a2.1,2.1,0,0,1,2.11-2.1h6.89v.7a1.64,1.64,0,0,0,1.64,1.64H22.36A1.65,1.65,0,0,0,24,5.58v-.7h6.89A2.11,2.11,0,0,1,33,7V39a.7.7,0,0,0,.7.7.7.7,0,0,0,.71-.7V7A3.52,3.52,0,0,0,30.89,3.47Zm-8.3,2.11a.23.23,0,0,1-.23.23H12.05a.23.23,0,0,1-.24-.23V1.64a.23.23,0,0,1,.24-.23H22.36a.23.23,0,0,1,.23.23Z"/><path class="cls-1" d="M20,10.17H14.39a.7.7,0,0,0-.7.71V13.6H8.77a.71.71,0,0,0-.71.7V22H7.17a.7.7,0,0,0-.7.71.7.7,0,0,0,.7.7H27.23a.7.7,0,0,0,.71-.7.71.71,0,0,0-.71-.71h-.89V17.61a.7.7,0,0,0-.7-.7H20.72v-6A.71.71,0,0,0,20,10.17ZM9.47,15h4.22v7H9.47Zm5.62-3.43h4.22V22H15.09Zm9.85,6.73V22H20.72V18.31Z"/><path class="cls-1" d="M6.33,31.69a1.08,1.08,0,0,0,1.08,1.08h4.87a1.08,1.08,0,0,0,1.08-1.08V26.81a1.08,1.08,0,0,0-1.08-1.08H7.41a1.08,1.08,0,0,0-1.08,1.08Zm1.4-4.55H12v4.22H7.73Z"/><path class="cls-1" d="M27.38,26.86H16.12a.7.7,0,0,0-.7.7.71.71,0,0,0,.7.71H27.38a.71.71,0,0,0,.7-.71A.7.7,0,0,0,27.38,26.86Z"/><path class="cls-1" d="M27.38,29.86H16.12a.7.7,0,0,0-.7.7.71.71,0,0,0,.7.71H27.38a.71.71,0,0,0,.7-.71A.7.7,0,0,0,27.38,29.86Z"/><path class="cls-1" d="M13.36,40.78V35.91a1.08,1.08,0,0,0-1.08-1.08H7.41a1.08,1.08,0,0,0-1.08,1.08v4.87a1.08,1.08,0,0,0,1.08,1.08h4.87A1.08,1.08,0,0,0,13.36,40.78ZM12,40.45H7.73V36.23H12Z"/><path class="cls-1" d="M27.38,36H16.12a.71.71,0,0,0,0,1.41H27.38a.71.71,0,0,0,0-1.41Z"/><path class="cls-1" d="M27.38,39H16.12a.71.71,0,0,0,0,1.41H27.38a.71.71,0,0,0,0-1.41Z"/></g></svg>