<svg xmlns="http://www.w3.org/2000/svg" viewBox="0 0 27 27"><defs><style>.cls-1{fill:#fff;}</style></defs><title>20201201 RDPT Website</title><g id="txt"><path class="cls-1" d="M27,13.5A13.5,13.5,0,1,1,13.5,0,13.49,13.49,0,0,1,27,13.5ZM16.88,6.57c-.36,0-.72,0-.79.46-.17,1,.89.64,1.35.64a3.21,3.21,0,0,1,3.21,3.21c0,.65-.53,1.74.47,1.65.61,0,.77-1.15.69-2.06A4.23,4.23,0,0,0,16.88,6.57Zm.51,6.1a2,2,0,0,0,0-2c-.94-1.07-3.05,0-4.05.09.46-1.4-.05-2.81-1.77-2.38A8.19,8.19,0,0,0,7.7,10.74,7.16,7.16,0,0,0,5.19,15c-.2,2,1.09,3,2.33,3.71,4.52,2.51,11.77.21,12.2-3.21.23-1.86-1.17-2.17-2.33-2.79Zm-1.26,4.39a6.88,6.88,0,0,1-5.31,1.74c-4-.26-5.43-3.68-2.14-5.58,2.9-1.68,8.19-1,8.2,2.06a2.7,2.7,0,0,1-.75,1.78Zm1.21-8.29c-.26,0-.74,0-.74.51,0,.72.82.3,1.35.55a1.22,1.22,0,0,1,.6.91c.05.6-.21,1.1.47,1.06C20,11.73,19.81,8.59,17.34,8.77Zm-3.26,6.28a2.39,2.39,0,0,0-2.65-1.42c-1.58.16-3.1,1.51-2.47,3.2.95,2.54,6.12,1.17,5.12-1.78Zm-1.72.32a.35.35,0,0,1-.65.18C11.7,15.09,12.31,15,12.36,15.37Zm-1.82.23c1.32-.3,1.2,1.31.33,1.51A.78.78,0,1,1,10.54,15.6Z"/></g></svg>