<svg xmlns="http://www.w3.org/2000/svg" viewBox="0 0 46 46"><defs><style>.cls-1{fill:#fff;}</style></defs><title>20201201 RDPT Website</title><g id="txt"><path class="cls-1" d="M43.45,12.47a23.19,23.19,0,0,0-6.79-8A.93.93,0,1,0,35.55,6a21.4,21.4,0,0,1,6.24,7.33A20.91,20.91,0,0,1,44.13,23,21.13,21.13,0,1,1,23,1.87.94.94,0,1,0,23,0,23,23,0,1,0,43.45,12.47Z"/><path class="cls-1" d="M17.11,12.32a.94.94,0,0,0-.47.81V33.68a.94.94,0,0,0,1.87,0V14.78L32.37,23,22.18,29.6a.94.94,0,1,0,1,1.57l11.46-7.38a1,1,0,0,0,.43-.81.93.93,0,0,0-.46-.78L18.06,12.33A1,1,0,0,0,17.11,12.32Z"/></g></svg>