<svg xmlns="http://www.w3.org/2000/svg" viewBox="0 0 20 20"><title>20201201 RDPT Website</title><g id="txt"><path d="M19.63,7.12a1.44,1.44,0,0,0-.88-.47h0l-5.31-.74-2.11-5a1.44,1.44,0,0,0-2.66,0l-2.11,5-5.31.74A1.45,1.45,0,0,0,0,8.28a1.47,1.47,0,0,0,.47.88l4,3.58-.82,5.6a1.44,1.44,0,0,0,2.24,1.41L10,17l4.09,2.78a1.44,1.44,0,0,0,2.24-1.41l-.82-5.6,4-3.58A1.44,1.44,0,0,0,19.63,7.12Zm-5.36,4.81a.73.73,0,0,0-.23.64l.86,6-4.5-3.06a.73.73,0,0,0-.8,0l-4.52,3,.88-6a.72.72,0,0,0-.23-.63L1.44,8.07l5.72-.79a.71.71,0,0,0,.56-.44L10,1.43h0l2.27,5.4a.7.7,0,0,0,.56.43l5.72.83Z"/></g></svg>