<svg xmlns="http://www.w3.org/2000/svg" viewBox="0 0 76 76"><defs><style>.cls-1{fill:#fff;}.cls-2{fill:#db2c2c;}</style></defs><title>20201201 RDPT Website</title><g id="txt"><path class="cls-1" d="M33,37.64a.87.87,0,0,0,0,1.73h9.93a.87.87,0,0,0,0-1.73Z"/><path class="cls-1" d="M41,28.58a.86.86,0,0,0,.87.86h3.25v3.25a.87.87,0,1,0,1.73,0V29.44h3.25a.86.86,0,0,0,0-1.72H46.89V24.47a.87.87,0,1,0-1.73,0v3.25H41.91A.86.86,0,0,0,41,28.58Z"/><path class="cls-1" d="M48.42,38.84h-.13l-.36-2.55a.86.86,0,1,0-1.71.24l.46,3.29a.87.87,0,0,0,.86.74h.54a1.2,1.2,0,0,1,0,2.39H27.92a1.2,1.2,0,0,1,0-2.39h.54a.87.87,0,0,0,.86-.74l1.11-7.9a7.57,7.57,0,0,1,3.29-5.29,8,8,0,0,1,4.38-1.29,7.6,7.6,0,0,1,2.89.6.87.87,0,0,0,1.14-.45.88.88,0,0,0-.44-1.14,9.51,9.51,0,0,0-8.93.84,9.36,9.36,0,0,0-4,6.49l-1,7.16h-.13a2.93,2.93,0,0,0,.34,5.83H48.08a2.93,2.93,0,0,0,.34-5.83Z"/><path class="cls-1" d="M40.19,46.08a.84.84,0,0,0-.63.18.85.85,0,0,0-.32.58,1.2,1.2,0,0,1-2.37,0,.87.87,0,0,0-.32-.58.9.9,0,0,0-.54-.18h-.1a.86.86,0,0,0-.76,1A2.92,2.92,0,0,0,41,47,.86.86,0,0,0,40.19,46.08Z"/><path class="cls-2" d="M38,76A38,38,0,1,1,76,38,38,38,0,0,1,38,76ZM38,6A32,32,0,1,0,70,38,32,32,0,0,0,38,6Z"/></g></svg>