<svg xmlns="http://www.w3.org/2000/svg" viewBox="0 0 25 28.21"><defs><style>.cls-1{fill:#fff;}</style></defs><title>20201201 RDPT Website</title><g id="txt"><path class="cls-1" d="M16.36,18.57l.16-.27c2.47-4.09,3.71-7.66,3.69-10.63a7.71,7.71,0,0,0-15.42,0c0,3,1.22,6.54,3.69,10.63l.16.27C3.45,19.21,0,21.07,0,23.27,0,26,5.49,28.21,12.5,28.21S25,26,25,23.27c0-2.2-3.45-4.06-8.64-4.7ZM5.62,7.67a6.88,6.88,0,1,1,13.76-.08v.09c0,5.9-5.48,13.19-6.88,14.94-1.4-1.75-6.92-9-6.88-14.95ZM12.5,27.38c-7,0-11.67-2.12-11.67-4.11,0-1.76,3.48-3.39,8.3-3.92a46.69,46.69,0,0,0,3,4.19.41.41,0,0,0,.59.05l.05-.05a46.69,46.69,0,0,0,3-4.19c4.82.53,8.3,2.16,8.3,3.92,0,2-4.69,4.11-11.67,4.11Z"/><path class="cls-1" d="M9.1,25A11.36,11.36,0,0,1,4.93,23.8a.42.42,0,0,0-.45.7h0A12.33,12.33,0,0,0,9,25.8h.06a.42.42,0,0,0,0-.83Z"/><path class="cls-1" d="M13.2,25.17c-.58,0-1.18,0-1.77,0a.42.42,0,0,0-.44.4.43.43,0,0,0,.41.43h0l1.1,0h.72a.4.4,0,0,0,.4-.42.41.41,0,0,0-.41-.41Z"/><path class="cls-1" d="M16,7.67a3.51,3.51,0,1,0-3.51,3.52A3.51,3.51,0,0,0,16,7.67Zm-6.19,0a2.68,2.68,0,1,1,2.68,2.68A2.68,2.68,0,0,1,9.82,7.67Z"/></g></svg>