<svg xmlns="http://www.w3.org/2000/svg" viewBox="0 0 48.3 42"><defs><style>.cls-1{fill:#fff;}</style></defs><title>20201201 RDPT Website</title><g id="txt"><path class="cls-1" d="M46.2,12h-6V2.1A2.11,2.11,0,0,0,38.14,0H33a.69.69,0,1,0,0,1.38h5.15a.72.72,0,0,1,.72.72V37.28a4.72,4.72,0,0,0,1.4,3.35H4.7A3.34,3.34,0,0,1,1.37,37.3V2.1a.73.73,0,0,1,.73-.73H28.72a.68.68,0,0,0,.69-.68A.69.69,0,0,0,28.72,0H2.1A2.1,2.1,0,0,0,0,2.1V37.3A4.71,4.71,0,0,0,4.7,42H43.58a4.72,4.72,0,0,0,4.72-4.72V14.12A2.1,2.1,0,0,0,46.2,12ZM43.58,40.63a3.35,3.35,0,0,1-3.34-3.35V36.8h3.34a.69.69,0,0,0,.69-.69.68.68,0,0,0-.69-.68H40.24V30.16h3.34a.68.68,0,0,0,.69-.68.69.69,0,0,0-.69-.69H40.24V23.53h3.34a.69.69,0,1,0,0-1.38H40.24V13.39h6a.73.73,0,0,1,.73.73V37.28h0A3.36,3.36,0,0,1,43.58,40.63Z"/><path class="cls-1" d="M20.34,5.26H6.9A1.84,1.84,0,0,0,5.06,7.1v9A1.84,1.84,0,0,0,6.9,17.89H20.34a1.84,1.84,0,0,0,1.84-1.84v-9A1.84,1.84,0,0,0,20.34,5.26Zm.46,10.79a.47.47,0,0,1-.46.47H6.9a.47.47,0,0,1-.47-.47v-9a.47.47,0,0,1,.47-.47H20.34a.47.47,0,0,1,.46.47v9Z"/><path class="cls-1" d="M34.63,8.07H25.69a.69.69,0,0,0,0,1.38h8.94a.69.69,0,0,0,0-1.38Z"/><path class="cls-1" d="M34.63,13.7H25.69a.69.69,0,0,0,0,1.38h8.94a.69.69,0,0,0,0-1.38Z"/><path class="cls-1" d="M34.63,22.15H14.69a.69.69,0,1,0,0,1.38H34.63a.69.69,0,0,0,0-1.38Z"/><path class="cls-1" d="M10.41,22.15H6.26a.69.69,0,0,0,0,1.38h4.15a.69.69,0,0,0,0-1.38Z"/><path class="cls-1" d="M34.63,28.79H6.26a.69.69,0,0,0-.69.69.68.68,0,0,0,.69.68H34.63a.67.67,0,0,0,.68-.68A.68.68,0,0,0,34.63,28.79Z"/><path class="cls-1" d="M34.63,35.43H6.26a.68.68,0,0,0-.69.68.69.69,0,0,0,.69.69H34.63a.68.68,0,0,0,.68-.69A.67.67,0,0,0,34.63,35.43Z"/></g></svg>